# xmcd
#
# Track frame offsets:
#	150
#	24482
#	43350
#	69217
#	94517
#	113537
#	133792
#	149862
#	172812
#	194965
#	222075
#	243302
#
# Disc length: 3705 seconds
#
# Revision: 0
# Processed by: cddbd v1.4PL0 Copyright (c) Steve Scherf et al.
# Submitted via: audiograbber 1.81.03
#
DISCID=b00e770c
DTITLE=Steve Guyger - Live At The Dinosaur
DYEAR=1997
DGENRE=Blues
TTITLE0=Come Home Baby (Live)
TTITLE1=What Have I Done (Live)
TTITLE2=Walk With Me (Live)
TTITLE3=Why Do You Act Like That (Live)
TTITLE4=Step Back (Live)
TTITLE5=Tonight With A Fool (Live)
TTITLE6=Sharp Harp (Live)
TTITLE7=Shake Your Hips (Live)
TTITLE8=Monkey On A Limb (Live)
TTITLE9=Glad You're Mine (Live)
TTITLE10=Shake The Boogie (Live)
TTITLE11=I Wish You Would (Live)
EXTD=
EXTT0=
EXTT1=
EXTT2=
EXTT3=
EXTT4=
EXTT5=
EXTT6=
EXTT7=
EXTT8=
EXTT9=
EXTT10=
EXTT11=
PLAYORDER=
